#!OML:ASF X:\für Bonn\!DataBase\2005_08_12_Daniel\c3d\Daniel.ASF
:FULLY-SPECIFIED
:DEGREES
202
root 0.32324 17.5298 0.990436 -574.354 -98.9361 561.582
lowerback 10.7614 1.80265 1.25951
upperback -2.15083 2.04565 -5.56962
thorax -8.10576 0.743111 -7.05147
lowerneck 10.7599 -6.20159 1.43245
upperneck 3.68928 -8.33917 5.63778
head -0.442031 -4.34079 1.81517
rclavicle -2.26615e-014 2.8625e-014
rhumerus 88.2755 -9.05782 -101.178
rradius 10.7729
rwrist 72.8886
rhand -12.9302 733.203
rfingers 7.12502
rthumb 13.1605 -16.3612
lclavicle -2.26615e-014 2.8625e-014
lhumerus -115.96 204.824 -118.589
lradius 77.3119
lwrist 30.9955
lhand -14.3768 -3.65244
lfingers 7.12502
lthumb 11.7658 25.9971
rfemur 2.78291 4.6503 12.8579
rtibia 41.9722
rfoot -7.67015 -14.5041
rtoes -16.1421
lfemur -184.314 195.258 -205.399
ltibia 47.4592
lfoot 356.151 1.75095
ltoes -1.32515
203
root 0.335115 17.5268 0.982426 -573.816 -99.1275 560.909
lowerback 10.8087 1.71454 1.15381
upperback -1.84008 1.92979 -5.5029
thorax -7.81659 0.708123 -6.88335
lowerneck 10.8735 -6.19868 1.50358
upperneck 3.60518 -8.31809 5.69194
head -0.489024 -4.33389 1.82742
rclavicle -1.70955e-014 1.27222e-014
rhumerus 87.8132 -9.19551 -98.6089
rradius 11.1899
rwrist 70.4982
rhand -13.61 733.116
rfingers 7.12502
rthumb 12.5051 -16.4897
lclavicle -1.70955e-014 1.27222e-014
lhumerus -115.9 204.656 -119.094
lradius 77.7455
lwrist 29.1154
lhand -14.3212 -3.89101
lfingers 7.12502
lthumb 11.8193 25.7555
rfemur 2.91094 4.64967 13.0171
rtibia 42.0478
rfoot -7.92072 -14.8082
rtoes -16.4706
lfemur -184.426 195.203 -205.329
ltibia 47.7223
lfoot 356.54 1.59708
ltoes -1.45818
204
root 0.350244 17.5344 0.975245 -573.355 -99.2973 560.352
lowerback 10.8763 1.62862 1.03595
upperback -1.56826 1.81511 -5.41573
thorax -7.58216 0.671455 -6.69029
lowerneck 11.0049 -6.17408 1.46533
upperneck 3.58874 -8.28619 5.7957
head -0.511636 -4.3231 1.87221
rclavicle -4.59193e-014 -1.74931e-014
rhumerus 87.2674 -9.30499 -96.0394
rradius 11.6724
rwrist 68.1877
rhand -14.2422 733.018
rfingers 7.12502
rthumb 11.8956 -16.6241
lclavicle -4.59193e-014 -1.74931e-014
lhumerus -116.006 204.498 -119.48
lradius 78.2028
lwrist 27.1169
lhand -14.2585 -4.19209
lfingers 7.12502
lthumb 11.8798 25.4509
rfemur 2.96009 4.68594 13.1555
rtibia 42.0745
rfoot -7.84329 -15.1945
rtoes -16.568
lfemur -184.589 195.167 -205.261
ltibia 47.9043
lfoot 357.173 1.56944
ltoes -1.51687
205
root 0.370137 17.5516 0.969958 -572.989 -99.4343 559.898
lowerback 11.0229 1.55628 0.949373
upperback -1.33124 1.71894 -5.33605
thorax -7.42699 0.638389 -6.53336
lowerneck 11.0573 -6.14569 1.4064
upperneck 3.71003 -8.26562 5.9066
head -0.475424 -4.31505 1.91562
rclavicle 2.14687e-014 -2.06736e-014
rhumerus 86.6494 -9.44287 -93.1748
rradius 12.1832
rwrist 65.612
rhand -14.7 732.959
rfingers 7.12502
rthumb 11.4541 -16.7081
lclavicle 2.14687e-014 -2.06736e-014
lhumerus -116.198 204.408 -119.85
lradius 78.6957
lwrist 25.0907
lhand -14.2325 -4.47828
lfingers 7.12502
lthumb 11.9049 25.1633
rfemur 2.97234 4.84464 13.3166
rtibia 42.0689
rfoot -7.566 -15.6694
rtoes -16.5194
lfemur -184.762 195.117 -205.175
ltibia 48.0022
lfoot 358.01 1.62279
ltoes -1.43947
206
root 0.392421 17.5772 0.965702 -572.803 -99.5404 559.661
lowerback 11.1922 1.50295 0.879532
upperback -1.1148 1.64634 -5.28021
thorax -7.30279 0.613507 -6.41846
lowerneck 11.0221 -6.11924 1.36903
upperneck 3.89798 -8.25325 6.00903
head -0.404092 -4.30801 1.94729
rclavicle 1.78906e-015 -5.24792e-014
rhumerus 85.9364 -9.6183 -90.159
rradius 12.7044
rwrist 62.9039
rhand -15.1354 732.887
rfingers 7.12502
rthumb 11.0342 -16.8029
lclavicle 1.78906e-015 -5.24792e-014
lhumerus -116.484 204.419 -120.247
lradius 79.2668
lwrist 23.0175
lhand -14.2664 -4.76069
lfingers 7.12502
lthumb 11.8722 24.8827
rfemur 2.89394 5.10085 13.4557
rtibia 42.0654
rfoot -7.11192 -16.1929
rtoes -16.3124
lfemur -184.964 195.06 -205.107
ltibia 48.0184
lfoot 359 1.78831
ltoes -1.2797
207
root 0.419014 17.6065 0.960595 -572.493 -99.6497 559.319
lowerback 11.3944 1.44558 0.831759
upperback -0.927658 1.56879 -5.23049
thorax -7.22852 0.582979 -6.32523
lowerneck 10.879 -6.0924 1.33449
upperneck 4.20022 -8.2536 6.11801
head -0.277694 -4.30354 1.97321
rclavicle -4.19436e-014 7.15625e-014
rhumerus 85.1134 -9.76593 -87.3999
rradius 13.2934
rwrist 60.3948
rhand -15.5103 732.895
rfingers 7.12502
rthumb 10.6725 -16.8141
lclavicle -4.19436e-014 7.15625e-014
lhumerus -116.934 204.524 -120.689
lradius 79.9465
lwrist 21.051
lhand -14.4369 -5.15203
lfingers 7.12502
lthumb 11.7078 24.5008
rfemur 2.75114 5.2885 13.564
rtibia 42.065
rfoot -6.49457 -16.6651
rtoes -16.0804
lfemur -185.196 195.027 -205.003
ltibia 47.9838
lfoot 360.037 2.01132
ltoes -0.81774
208
root 0.449667 17.638 0.955224 -572.253 -99.7742 559.076
lowerback 11.594 1.38648 0.760236
upperback -0.753581 1.48514 -5.17707
thorax -7.16775 0.54964 -6.21355
lowerneck 10.701 -6.04713 1.20118
upperneck 4.55718 -8.24815 6.29083
head -0.122228 -4.29652 2.03361
rclavicle -9.34288e-015 2.54444e-014
rhumerus 84.2677 -9.8597 -85.1006
rradius 13.9685
rwrist 58.2993
rhand -15.8946 732.965
rfingers 7.12502
rthumb 10.3018 -16.763
lclavicle -9.34288e-015 2.54444e-014
lhumerus -117.504 204.681 -121.06
lradius 80.6661
lwrist 19.1729
lhand -14.6372 -5.54541
lfingers 7.12502
lthumb 11.5146 24.1183
rfemur 2.53625 5.36785 13.5644
rtibia 42.0612
rfoot -5.67119 -17.0001
rtoes -15.5791
lfemur -185.469 194.998 -204.912
ltibia 47.9186
lfoot 361.045 2.22359
ltoes -0.420924
209
root 0.480228 17.6739 0.949793 -571.928 -99.8879 558.752
lowerback 11.8006 1.32866 0.697967
upperback -0.604275 1.4035 -5.12137
thorax -7.13672 0.515745 -6.10631
lowerneck 10.5829 -6.01149 1.11973
upperneck 4.92675 -8.24982 6.42173
head 0.023817 -4.29288 2.07494
rclavicle -3.51849e-014 7.15625e-014
rhumerus 83.4383 -9.89659 -83.5817
rradius 14.7158
rwrist 56.8674
rhand -16.2905 733.114
rfingers 7.12502
rthumb 9.9199 -16.6325
lclavicle -3.51849e-014 7.15625e-014
lhumerus -118.162 204.883 -121.386
lradius 81.363
lwrist 17.4554
lhand -14.8537 -6.05081
lfingers 7.12502
lthumb 11.3059 23.6245
rfemur 2.31248 5.33175 13.4996
rtibia 42.0349
rfoot -4.69494 -17.202
rtoes -15.0017
lfemur -185.741 194.952 -204.806
ltibia 47.8441
lfoot 361.933 2.3857
ltoes -0.400298
210
root 0.510392 17.7148 0.945168 -571.582 -100.014 558.42
lowerback 12.0048 1.27216 0.652478
upperback -0.466188 1.32407 -5.08038
thorax -7.11502 0.481314 -6.02524
lowerneck 10.5204 -5.97514 1.06425
upperneck 5.22373 -8.24106 6.55686
head 0.136372 -4.28588 2.11777
rclavicle 2.08724e-014 -4.77083e-014
rhumerus 82.2819 -9.9554 -81.3848
rradius 15.7438
rwrist 54.724
rhand -16.727 733.115
rfingers 7.12502
rthumb 9.4988 -16.6505
lclavicle 2.08724e-014 -4.77083e-014
lhumerus -118.912 205.136 -121.647
lradius 82.0526
lwrist 15.8554
lhand -15.0783 -6.59702
lfingers 7.12502
lthumb 11.0892 23.09
rfemur 2.09131 5.27612 13.3767
rtibia 41.9936
rfoot -3.81245 -17.3137
rtoes -14.102
lfemur -186.009 194.884 -204.701
ltibia 47.7589
lfoot 362.668 2.47204
ltoes -0.547111
211
root 0.5406 17.7517 0.939025 -571.001 -100.111 557.86
lowerback 12.2175 1.21868 0.636272
upperback -0.356633 1.2535 -5.0239
thorax -7.12707 0.449555 -5.94708
lowerneck 10.4944 -5.94274 1.03124
upperneck 5.53575 -8.23658 6.67651
head 0.246484 -4.28114 2.1535
rclavicle -1.90833e-014 -1.59028e-015
rhumerus 80.799 -9.96211 -78.6813
rradius 16.9924
rwrist 52.0123
rhand -17.3181 733.032
rfingers 7.12502
rthumb 8.92842 -16.7592
lclavicle -1.90833e-014 -1.59028e-015
lhumerus -119.925 205.471 -121.721
lradius 82.8327
lwrist 14.3289
lhand -15.2123 -7.22014
lfingers 7.12502
lthumb 10.96 22.4738
rfemur 1.86643 5.21765 13.2925
rtibia 41.9395
rfoot -3.04198 -17.4323
rtoes -13.1593
lfemur -186.263 194.811 -204.533
ltibia 47.6589
lfoot 363.317 2.51719
ltoes -0.380857
212
root 0.570774 17.7818 0.933961 -570.442 -100.209 557.349
lowerback 12.401 1.1682 0.630277
upperback -0.260226 1.18753 -4.97977
thorax -7.13544 0.419252 -5.88799
lowerneck 10.4737 -5.9091 1.00796
upperneck 5.82388 -8.22918 6.81817
head 0.348703 -4.27546 2.19585
rclavicle 2.08724e-014 -6.36111e-015
rhumerus 79.1149 -9.92228 -75.7747
rradius 18.3873
rwrist 49.149
rhand -18.1115 732.852
rfingers 7.12502
rthumb 8.16276 -16.9707
lclavicle 2.08724e-014 -6.36111e-015
lhumerus -121.133 205.857 -121.66
lradius 83.6412
lwrist 12.9156
lhand -15.3136 -7.8931
lfingers 7.12502
lthumb 10.8622 21.806
rfemur 1.6192 5.10504 13.1594
rtibia 41.8906
rfoot -2.34459 -17.4567
rtoes -12.2082
lfemur -186.491 194.742 -204.378
ltibia 47.5391
lfoot 363.797 2.52465
ltoes -0.083999
213
root 0.599146 17.8096 0.933398 -569.791 -100.306 556.761
lowerback 12.5604 1.10836 0.658687
upperback -0.18095 1.11592 -4.9229
thorax -7.14851 0.385228 -5.83328
lowerneck 10.5724 -5.87009 0.987108
upperneck 6.00775 -8.20078 6.92981
head 0.395964 -4.26321 2.23512
rclavicle 6.16232e-014 -2.38542e-014
rhumerus 77.3595 -9.76542 -73.1227
rradius 19.8609
rwrist 46.5651
rhand -19.1894 732.63
rfingers 7.12502
rthumb 7.12231 -17.2301
lclavicle 6.16232e-014 -2.38542e-014
lhumerus -122.468 206.267 -121.494
lradius 84.4596
lwrist 11.6051
lhand -15.3734 -8.47871
lfingers 7.12502
lthumb 10.8046 21.2234
rfemur 1.38074 4.90227 12.9856
rtibia 41.8341
rfoot -1.70237 -17.3387
rtoes -11.611
lfemur -186.675 194.713 -204.241
ltibia 47.408
lfoot 364.051 2.488
ltoes -0.0107659
214
root 0.623947 17.8339 0.933473 -568.938 -100.383 555.96
lowerback 12.7405 1.04897 0.747993
upperback -0.135099 1.05255 -4.87296
thorax -7.20693 0.351606 -5.82464
lowerneck 10.749 -5.84257 0.992754
upperneck 6.15321 -8.18123 7.05305
head 0.418103 -4.25798 2.27803
rclavicle 2.20651e-014 -3.18055e-015
rhumerus 75.5059 -9.55364 -70.6963
rradius 21.379
rwrist 44.2654
rhand -20.4659 732.412
rfingers 7.12502
rthumb 5.89005 -17.4862
lclavicle 2.20651e-014 -3.18055e-015
lhumerus -123.876 206.73 -121.318
lradius 85.2296
lwrist 10.5872
lhand -15.467 -9.01815
lfingers 7.12502
lthumb 10.7143 20.6886
rfemur 1.19063 4.60824 12.8375
rtibia 41.7585
rfoot -1.04634 -17.0747
rtoes -11.3649
lfemur -186.781 194.671 -204.067
ltibia 47.2707
lfoot 364.121 2.39017
ltoes 0.0485635
215
root 0.647902 17.8554 0.934533 -568.019 -100.446 555.108
lowerback 12.9034 0.994609 0.841879
upperback -0.0905162 0.999937 -4.79775
thorax -7.25611 0.324141 -5.79222
lowerneck 10.9401 -5.80552 0.941687
upperneck 6.23871 -8.14904 7.19695
head 0.421201 -4.24874 2.33923
rclavicle 3.47873e-014 7.15625e-015
rhumerus 73.6031 -9.25008 -68.2084
rradius 22.9738
rwrist 41.9643
rhand -21.8463 732.191
rfingers 7.12502
rthumb 4.55722 -17.7395
lclavicle 3.47873e-014 7.15625e-015
lhumerus -125.359 207.194 -121.072
lradius 85.9781
lwrist 9.72127
lhand -15.604 -9.45859
lfingers 7.12502
lthumb 10.5822 20.255
rfemur 1.01118 4.28394 12.6928
rtibia 41.641
rfoot -0.351774 -16.7283
rtoes -11.5947
lfemur -186.838 194.662 -203.888
ltibia 47.1373
lfoot 363.989 2.27148
ltoes 0.178408
216
root 0.671854 17.8714 0.934997 -567.195 -100.516 554.355
lowerback 13.0757 0.948529 0.896439
upperback -0.0648528 0.952238 -4.71884
thorax -7.33105 0.299755 -5.73487
lowerneck 11.2124 -5.78334 0.948671
upperneck 6.22838 -8.11718 7.29708
head 0.376073 -4.24186 2.38167
rclavicle -3.49861e-014 2.06736e-014
rhumerus 71.7579 -8.88952 -66.101
rradius 24.5375
rwrist 40.0978
rhand -23.3602 732.076
rfingers 7.12502
rthumb 3.09525 -17.8812
lclavicle -3.49861e-014 2.06736e-014
lhumerus -126.871 207.697 -120.778
lradius 86.6715
lwrist 9.12106
lhand -15.8112 -9.74932
lfingers 7.12502
lthumb 10.3823 19.9744
rfemur 0.846127 3.97298 12.5328
rtibia 41.4779
rfoot 0.311916 -16.4026
rtoes -11.7286
lfemur -186.871 194.615 -203.72
ltibia 47.0062
lfoot 363.785 2.11365
ltoes 0.411156
